<?xml version="1.0" encoding="UTF-8"?>
<svg xmlns="http://www.w3.org/2000/svg" viewBox="0 0 503 503">
  <defs>
    <style>
      .cls-1 {
        fill: none;
        stroke: #ff7e00;
        stroke-miterlimit: 10;
        stroke-width: 3px;
      }

      .cls-2 {
        fill: #ff7e00;
      }
    </style>
  </defs>
  <g id="Layer_1" data-name="Layer 1">
    <g>
      <path class="cls-2" d="M273.22,8.5c-.95,75.26-43.2,136.58-104.7,161.78-35.57,14.57-73.7,13.4-107.29,33.49-2.24-2.78,16.49-32.91,19.31-37.1,29.04-43.09,71.72-73.94,113.98-98.07,2.61-1.49,3.26-1.9-.23-1.72C90.87,101.14,2.64,209.65,29.97,339.03l7.49,27.94c-5.32-8.42-10.12-18.67-13.72-28.15C-4.06,265.53,3.98,183.56,45.3,119.41,97.11,38.98,188.41,8.78,273.22,8.5Z"/>
      <path class="cls-2" d="M288.45,437.91c-13.33,11.18-67.46-3.4-85.9-1.07-.88,3.71.52,2.55,2.22,3.55,41.83,24.65,111.17,12.4,150.47-11.78,17.12-10.54,51.31-44.57,72.94-31.42,18.79,11.43-11.39,33.83-21.59,42.04-56.51,45.48-131.1,65.21-205.47,50.42-117.3-23.33-181.72-121.89-161.1-228.8,5.06,4.76,4.38,14.94,6.34,21.92,9.53,33.97,35.13,76.38,73.56,87.92,15.35,4.61,32.37,4.67,48.05,8.26,21.09,4.84,39.16,15.99,59.15,21.87,15.61,4.59,51.9,5.98,61.08,15.33,5.48,5.58,6.58,16.45.24,21.76Z"/>
      <path class="cls-2" d="M312.2,242.79c-2.03,4.52,5.38,11.14,6.78,15.14,4.7,13.49-3.47,15.72-3.72,20.77-.16,3.31,3.48,6.88,2.35,13.55-.92,5.43-7.33,9.38-7.94,13.43-2.56,16.84,11.05,31.18-3.79,49.57-14.39,17.84-40.32,11.7-59.89,13.32-15.7,1.3-30.65,1.09-26.97,22.12-17.04-1.84-21.19-7.87-11.81-23.33,16.79-27.69,64.26-3.06,84.63-19.95,15.19-12.6-2.35-31.97,3.4-46.59,1.51-3.84,8.05-8.86,7.48-13.23-.54-4.14-8.07-6.88-7.85-9.96.26-3.69,11.32-8.56,10.66-14.58-.71-6.41-9.82-9.87-7.77-24.37,1.21-8.57,23.02-13.79,23.38-20.81.28-5.37-40.19-43.54-45.05-59.54-3.99-13.11-.89-27.06-1.97-40.21-.75-9.08-6.1-24.88-5.95-30.88.11-4.59,6.14-9.3,7.24-14.11,3.72-3.66,9.58,18.74,10.05,21.01,4.59,22.13-.7,50.8,9.95,68.43,8.12,13.44,40.07,42.11,41.99,53.62,2.74,16.44-23.23,22.25-25.19,26.61Z"/>
      <path class="cls-2" d="M391.88,393.94c-27.05,21.76-54.8,46.23-91.64,51.64,2.76-3.83,8.63-5.55,12.8-8.91,23.18-18.63,42.79-54.01,78.84-42.73Z"/>
    </g>
  </g>
  <g id="circle_ref" data-name="circle ref">
    <circle class="cls-1" cx="251.5" cy="251.5" r="250"/>
  </g>
</svg>